<svg xmlns="http://www.w3.org/2000/svg" xmlns:xlink="http://www.w3.org/1999/xlink" width="55.5" height="55.69" viewBox="0 0 55.5 55.69">
  <defs>
    <clipPath id="clip-path">
      <rect id="Rectangle_2040" data-name="Rectangle 2040" width="29.211" height="46.737" fill="#fff"/>
    </clipPath>
  </defs>
  <g id="Group_66843" data-name="Group 66843" transform="translate(-525 -601.962)">
    <circle id="Ellipse_466" data-name="Ellipse 466" cx="27.75" cy="27.75" r="27.75" transform="translate(525 601.962)" fill="#e0ddff"/>
    <g id="Group_66233" data-name="Group 66233" transform="translate(530.178 608.062)">
      <path id="Path_5551" data-name="Path 5551" d="M34.4,40.976c-2.1-2.921-3.294-8.76-3.489-11.583l-10-4.309-3.13,15.239Z" transform="translate(-4.455 6.442)" fill="#fc909f" stroke="#000" stroke-width="0.389"/>
      <g id="Group_66229" data-name="Group 66229" transform="translate(17.46 22.964)">
        <ellipse id="Ellipse_467" data-name="Ellipse 467" cx="8.617" cy="7.887" rx="8.617" ry="7.887"/>
      </g>
      <g id="Group_66232" data-name="Group 66232" transform="translate(7.966 0.18)" clip-path="url(#clip-path)">
        <path id="Path_5552" data-name="Path 5552" d="M29.794,40.53c-2.1-2.921-3.749-8.568-3.944-11.392l-10-4.309-4.163,15.7Z" transform="translate(-7.302 6.134)" fill="#77311d" stroke="#000" stroke-width="0.389"/>
        <g id="Group_66231" data-name="Group 66231" transform="translate(9.493 22.784)">
          <g id="Group_66230" data-name="Group 66230">
            <ellipse id="Ellipse_468" data-name="Ellipse 468" cx="8.617" cy="7.887" rx="8.617" ry="7.887"/>
          </g>
        </g>
        <path id="Path_5553" data-name="Path 5553" d="M34.941,25.16l-.012-.051-.012-.051-2.395-9.995-.007-.03L32.507,15l-.01-.044h0a11.352,11.352,0,0,0-22.078,5.29h0l.018.074L12.9,30.607h0a11.352,11.352,0,0,0,22.074-5.289h0Z" transform="translate(-8.084 -3.118)" fill="#77311d"/>
        <path id="Path_5554" data-name="Path 5554" d="M35.136,25.355l-.569.134v0Zm-.012-.051.568-.136h0Zm-.012-.051-.568.136v0Zm-2.395-9.995-.569.135h0ZM32.7,15.2l-.568.136v0Zm-.011-.044.568-.136-.136-.568-.568.136Zm0,0-.567.14.139.563.564-.135ZM19.025,6.834l-.136-.568Zm-8.412,13.61.135.568.566-.135-.132-.566Zm0,0-.135-.568-.57.135.137.569Zm.018.074.568-.136h0ZM13.095,30.8l-.568.136.136.568.568-.136Zm0,0,.565-.147-.144-.555-.558.133Zm13.632,8.187.136.568Zm8.442-13.476-.136-.568-.558.134.123.56Zm0,0,.136.568.568-.136-.136-.568Zm.531-.291-.013-.054-1.136.272.012.048Zm-.013-.054-.013-.054-1.135.277.012.048Zm-3.543-9.774,2.395,9.995,1.136-.272-2.395-9.995Zm1.137-.271-.008-.032-1.136.272.007.029Zm-.008-.032-.008-.032-1.135.275.007.028Zm-1.154.2.011.044,1.136-.272-.01-.044Zm.7.432h0l-.272-1.136h0Zm.431-.708A11.936,11.936,0,0,0,18.889,6.266L19.161,7.4a10.767,10.767,0,0,1,12.963,7.892ZM18.889,6.266a11.936,11.936,0,0,0-8.845,14.31l1.138-.265A10.767,10.767,0,0,1,19.161,7.4ZM10.749,21.012h0l-.27-1.137h0Zm.451-.631-.018-.074-1.136.273.018.074Zm2.464,10.284L11.2,20.382l-1.136.272,2.464,10.284Zm-.7-.433h0l.272,1.136h0Zm-.43.715a11.936,11.936,0,0,0,14.334,8.608l-.272-1.136a10.767,10.767,0,0,1-12.931-7.765Zm14.334,8.608a11.936,11.936,0,0,0,8.877-14.169l-1.141.251A10.767,10.767,0,0,1,26.593,38.42Zm8.172-14.612h0l.272,1.136h0Zm-.469.547.038.157,1.136-.272-.038-.157Z" transform="translate(-8.278 -3.313)"/>
      </g>
      <path id="Path_5555" data-name="Path 5555" d="M20.058,21.523c.609-.341,3.067-.774,3.067.219,0,1.241-1.68,1.168-1.68,1.168s1.905-.462,1.534.876c-.365,1.314-1.387.8-1.68.657" transform="translate(4.851 4.464)" fill="none" stroke="#000" stroke-width="0.389"/>
      <path id="Path_5556" data-name="Path 5556" d="M19.376,10.224c2.142-.1,5.9-1.285,3.8-5.258" transform="translate(4.51 -3.617)" fill="none" stroke="#000" stroke-width="0.389"/>
      <path id="Path_5557" data-name="Path 5557" d="M16.845,10.029c2.142-.1,5.9-1.285,3.8-5.258" transform="translate(3.244 -3.715)" fill="none" stroke="#000" stroke-width="0.389"/>
      <path id="Path_5558" data-name="Path 5558" d="M13.339,11.1c2.142-.1,5.9-1.285,3.8-5.258" transform="translate(1.492 -3.179)" fill="none" stroke="#000" stroke-width="0.389"/>
      <path id="Path_5559" data-name="Path 5559" d="M21.324,12.981a3.133,3.133,0,0,1,3.943.949" transform="translate(5.484 0.229)" fill="none" stroke="#fc909f" stroke-linecap="round" stroke-width="0.389"/>
      <path id="Path_5560" data-name="Path 5560" d="M13.98,16.07a3.133,3.133,0,0,1,3.441-2.147" transform="translate(1.812 0.837)" fill="none" stroke="#fc909f" stroke-linecap="round" stroke-width="0.389"/>
      <path id="Path_5561" data-name="Path 5561" d="M14.522,15.011l-.9-.792" transform="translate(1.634 1.009)" fill="none" stroke="#fc909f" stroke-linecap="round" stroke-width="0.389"/>
      <path id="Path_5562" data-name="Path 5562" d="M23.657,13.229l.9-.792" transform="translate(6.65 0.118)" fill="none" stroke="#fc909f" stroke-linecap="round" stroke-width="0.389"/>
      <path id="Path_5563" data-name="Path 5563" d="M15.048,14.545,14.457,13.5" transform="translate(2.05 0.651)" fill="none" stroke="#fc909f" stroke-linecap="round" stroke-width="0.389"/>
      <path id="Path_5564" data-name="Path 5564" d="M22.931,12.958l.591-1.042" transform="translate(6.288 -0.142)" fill="none" stroke="#fc909f" stroke-linecap="round" stroke-width="0.389"/>
      <path id="Path_5565" data-name="Path 5565" d="M15.744,14.231l-.321-1.154" transform="translate(2.533 0.438)" fill="none" stroke="#fc909f" stroke-linecap="round" stroke-width="0.389"/>
      <path id="Path_5566" data-name="Path 5566" d="M22.048,12.935l.321-1.154" transform="translate(5.846 -0.209)" fill="none" stroke="#fc909f" stroke-linecap="round" stroke-width="0.389"/>
      <path id="Path_5567" data-name="Path 5567" d="M18.849,15.99c.271.929-.736.216-1.665.487s-1.428,1.425-1.7.5a1.753,1.753,0,0,1,3.365-.983Z" transform="translate(2.529 1.264)" fill="#6bd9e9"/>
      <path id="Path_5568" data-name="Path 5568" d="M25.066,15.114c.239.938-.686.222-1.623.461s-1.535,1.342-1.773.4a1.753,1.753,0,0,1,3.4-.865Z" transform="translate(5.629 0.797)" fill="#6bd9e9"/>
      <path id="Path_5569" data-name="Path 5569" d="M15.646,17.116a.144.144,0,0,0,.252.06,2.618,2.618,0,0,1,1.556-.714,2.864,2.864,0,0,1,1.068.069.14.14,0,0,0,.18-.171,1.582,1.582,0,0,0-3.06.722Z" transform="translate(2.637 1.556)"/>
      <path id="Path_5570" data-name="Path 5570" d="M21.887,16.136a.144.144,0,0,0,.252.06,2.6,2.6,0,0,1,1.54-.705,2.835,2.835,0,0,1,1.056.068.14.14,0,0,0,.18-.171,1.568,1.568,0,0,0-3.031.718Z" transform="translate(5.758 1.076)"/>
      <path id="Path_5571" data-name="Path 5571" d="M20.422,16.841c.03.561.248,1.764.883,2.088.794.4.172,1.746-1.315,1.66" transform="translate(4.817 2.32)" fill="none" stroke="#000" stroke-width="0.389"/>
      <path id="Path_5572" data-name="Path 5572" d="M6.19,45.133h0c-.6-.6-.985-1.048-1.4-1.547A19.748,19.748,0,0,1,3.5,41.893,18.4,18.4,0,0,1,4.9,33.054c.264-.6.594-1.211.952-1.877A22.675,22.675,0,0,0,9.03,19.135,14.067,14.067,0,0,1,14.391,8.252,18.306,18.306,0,0,1,25.838,4.067a10.286,10.286,0,0,1,5.415,1.116c1.419.857,2.537,2.344,3.367,4.9a.507.507,0,0,0,.636.331c1.653-.536,4.159.005,6.274,1.386a7.51,7.51,0,0,1,3.741,6.123,19.385,19.385,0,0,1-.762,5.258h0a15.794,15.794,0,0,0-.585,6.353,5.822,5.822,0,0,0,.608,2.164,7.548,7.548,0,0,0,1.039,1.411l.009.01a5.72,5.72,0,0,1,1.468,2.7A4.1,4.1,0,0,1,46.78,38c-.131.362-.291.725-.461,1.107l-.015.033c-.164.37-.335.757-.489,1.165a7.524,7.524,0,0,0-.543,2.9l.279-.006-.279.006a4.715,4.715,0,0,0,.439,2.084c-.461.446-.447.39-.868.783l-.8.744c-.533.463-1.123.884-1.558,1.221a12.809,12.809,0,0,1-1.516,1.053c-3.507,2.086-1.969.054-4.575.393-1.32.172-.944,2.239-1.709,2.234-.382,0-.682-.016-.885-.029l-.178-.012a22.877,22.877,0,0,1-2.351-5.957,42.3,42.3,0,0,1-1.212-6.048,11.653,11.653,0,0,0,7.993-12.92c0-.01,0-.017,0-.018h0l0-.029c0-.021-.008-.049-.015-.083-.012-.068-.031-.165-.054-.285-.048-.242-.117-.582-.206-1-.178-.825-.434-1.94-.747-3.122s-.683-2.435-1.089-3.536a10.183,10.183,0,0,0-1.33-2.664l-.043-.054-.064-.028c-.282-.122-.575-.259-.881-.4a13.672,13.672,0,0,0-5.442-1.574c-2.742-.108-6.215.843-10.909,4.248l-.3.214.284.229a7.436,7.436,0,0,1,2.721,6.471,13.029,13.029,0,0,1-.765,3.666,2.639,2.639,0,0,1-.359-.925c-.056-.253-.1-.519-.14-.8l-.007-.044c-.045-.291-.093-.6-.162-.888a2.726,2.726,0,0,0-.9-1.586,3.416,3.416,0,0,0-2.394-.559L14.928,24l.068.319,1.659,7.786,0,.013,0,.013a11.654,11.654,0,0,0,2.908,4.792l.048.081c.042.072.1.178.177.311.147.266.346.64.549,1.07a9.242,9.242,0,0,1,.907,2.806,9.239,9.239,0,0,1-.4,2.966c-.126.466-.257.875-.357,1.168l-.058.167a2,2,0,0,0-1.954,0A3.75,3.75,0,0,0,17.1,47.279a9.991,9.991,0,0,0-.754,3.385c-3.632-.833-5.286-2.283-7.194-2.926a15.528,15.528,0,0,1-2.079-1.731C6.811,45.791,6.474,45.428,6.19,45.133Z" transform="translate(-3.442 -4.067)" fill="#fc909f" stroke="#000" stroke-width="0.372"/>
      <path id="Path_5573" data-name="Path 5573" d="M13.364,17.6a3.473,3.473,0,0,0-1.084-.172,2.408,2.408,0,0,0-2.629,2.7,2.452,2.452,0,0,0,2.775,2.483,2.867,2.867,0,0,0,.5-.044,2.8,2.8,0,0,0,.511-.141" transform="translate(-0.359 2.614)" fill="none" stroke="#000" stroke-width="0.779"/>
      <path id="Path_5574" data-name="Path 5574" d="M13.51,22.4a2.83,2.83,0,0,1-1.084.214,2.452,2.452,0,0,1-2.775-2.483,2.408,2.408,0,0,1,2.629-2.7,3.439,3.439,0,0,1,1.3.253Z" transform="translate(-0.359 2.614)" fill="#77311d"/>
      <path id="Path_5575" data-name="Path 5575" d="M12.609,18.312a1.621,1.621,0,0,0-2.337,1.169" transform="translate(-0.042 2.972)" fill="none" stroke="#000" stroke-width="0.389"/>
      <path id="Path_5576" data-name="Path 5576" d="M10.808,18.305a2.726,2.726,0,0,1,.8,2.264" transform="translate(0.226 3.052)" fill="none" stroke="#000" stroke-width="0.389"/>
      <path id="Path_5577" data-name="Path 5577" d="M12.95,20.35a3.505,3.505,0,1,1-3.505,3.505,4.65,4.65,0,0,1,.96-2.41l.136-.219" transform="translate(-0.456 4.075)" fill="none" stroke="#f4d150" stroke-width="0.389"/>
      <path id="Path_5578" data-name="Path 5578" d="M50.989,39.281a34.988,34.988,0,0,1-4.34.968,28.268,28.268,0,0,1-4.337.263,27.051,27.051,0,0,1-7.757-1.231,26.208,26.208,0,0,1-5.5-2.347,26.772,26.772,0,0,1-3.173-2.105A14.836,14.836,0,0,1,28.843,31.6a4.886,4.886,0,0,1,3.352-1.175c2.2.192,4.157,1.4,6.123,2.6l.559.343c2.115,1.289,4.288,2.486,6.677,1.962a2.669,2.669,0,0,0,1.7-1.046,2.9,2.9,0,0,0,.48-1.557,5.166,5.166,0,0,0-.139-1.353c-.038-.165-.078-.3-.109-.4A3.493,3.493,0,0,1,49.151,30a3.832,3.832,0,0,1,2,.1,12.081,12.081,0,0,1,4.425,2.882,35.723,35.723,0,0,1,2.664,2.836A29.873,29.873,0,0,1,55.2,37.608,26.892,26.892,0,0,1,50.989,39.281Z" transform="translate(-20.155 8.852)" fill="#fff" stroke="#000" stroke-width="0.416"/>
    </g>
  </g>
</svg>
